<svg width="271" height="79" viewBox="0 0 271 79" fill="none" xmlns="http://www.w3.org/2000/svg">
<path d="M260.951 56.333C260.492 55.4807 259.839 54.4451 259.207 53.4442L259.108 53.2869C258.672 52.5944 258.22 51.8796 258.012 51.4981C257.771 51.0595 257.326 50.3076 256.764 49.3562L256.69 49.2311C256.136 48.2946 254.663 45.8072 254.432 45.3067C254.028 44.3925 253.658 43.4671 253.327 42.5542C253.197 42.1924 253.071 41.8109 252.955 41.4108C253.523 40.1101 254.053 38.7487 254.535 37.3513C255.101 35.7062 255.681 34.0017 256.361 31.9837C256.918 30.3226 257.471 28.758 258.002 27.3334C258.469 26.0847 258.933 25.0516 259.383 24.2625C260.02 23.1464 260.179 21.7738 259.816 20.4904C259.453 19.217 258.625 18.2285 257.543 17.7751C256.94 17.5236 256.298 17.2721 255.635 17.0281C254.918 16.7642 254.204 16.5103 253.511 16.2724C252.723 16.0036 251.97 15.7658 251.285 15.5676C251.057 15.5007 250.837 15.4375 250.625 15.3793L250.521 15.3508C250.111 15.2368 249.717 15.1315 249.35 15.0386C247.88 14.6682 246.375 15.3595 245.517 16.8002C244.665 18.2297 243.867 19.876 243.145 21.6921C242.481 23.3681 241.848 25.0689 241.265 26.7438C240.948 27.6493 240.626 28.5511 240.304 29.4393C240.312 29.2485 240.322 29.0565 240.331 28.8645C240.407 27.3322 240.507 25.8233 240.633 24.3802C240.764 22.8615 240.881 21.5075 240.988 20.3071C241.02 19.9367 241.01 19.5676 240.962 19.2034V19.1191L240.887 18.7834C240.525 17.1507 239.371 15.902 237.948 15.6035C236.774 15.3582 235.332 15.1613 233.662 15.0176C232.078 14.8825 230.644 14.7698 229.399 14.6819C227.528 14.5468 225.861 16.0718 225.519 18.2309C225.235 20.0507 225.005 22.3114 224.838 24.9513C224.816 25.2981 224.795 25.6487 224.776 26.0017C224.28 24.3641 223.616 22.8317 222.788 21.4232C221.367 19.0101 219.352 17.0615 216.798 15.6308C215.154 14.7104 213.171 14.0873 210.904 13.78C209.767 13.6264 208.543 13.5484 207.269 13.5484C203.381 13.5484 200.126 14.2396 197.592 15.6035C194.987 17.007 192.896 18.9135 191.375 21.2659C189.871 23.5936 188.87 26.2805 188.402 29.2485C188.216 30.4217 188.077 31.6134 187.985 32.8125C187.802 32.8472 187.624 32.9004 187.45 32.9648C187.467 28.2935 187.213 23.549 186.686 18.7847C186.446 16.6304 184.863 15.0052 183.002 15.0052H181.189C180.358 15.0052 179.491 15.03 178.612 15.077C177.793 15.1216 177.001 15.165 176.231 15.2096C175.412 15.2579 174.786 15.305 174.316 15.3545C172.386 15.5552 170.931 17.4121 170.931 19.6729C170.931 20.758 170.959 21.9856 171.014 23.3223C171.067 24.6118 171.133 25.941 171.215 27.3805C171.277 28.4594 171.323 29.5236 171.35 30.5542C170.745 30.5765 170.176 30.6075 169.652 30.6446C169.376 30.662 167.494 30.6905 166.69 30.7041C165.99 30.7152 165.419 30.7252 164.96 30.7338C164.966 30.0215 164.977 29.3105 164.99 28.6056C165.013 27.2851 165.051 25.9175 165.105 24.5387C165.152 23.3099 165.204 22.2755 165.253 21.5546C165.408 19.3644 164.134 17.3849 162.302 16.9525C161.769 16.8237 161.08 16.7258 160.129 16.6416C159.66 16.602 159.185 16.566 158.718 16.5351C158.361 16.5115 157.995 16.4892 157.617 16.4694C156.672 16.4211 155.86 16.3864 155.138 16.3666C154.334 16.3431 153.75 16.3319 153.354 16.3319C151.67 16.3319 150.242 17.6177 149.791 19.4524C149.781 19.056 149.772 18.6608 149.76 18.2669C149.694 16.0272 148.199 14.2309 146.277 14.0873C145.356 14.0204 144.335 13.977 143.239 13.9572C142.796 13.9497 142.339 13.946 141.869 13.946H137.375C136.424 13.946 135.546 14.3635 134.884 15.0622C134.04 14.9408 133.203 14.8565 132.381 14.8132C130.975 14.7388 125.591 14.8206 123.512 15.383C121.618 15.8946 119.862 16.7642 118.291 17.9696C116.623 19.248 115.232 20.9599 114.157 23.0547C113.381 24.5288 112.742 26.1652 112.26 27.9193C111.834 29.4715 111.46 31.0633 111.149 32.6514C111.041 33.2039 110.947 33.7539 110.859 34.3015C110.766 27.4189 110.41 20.7134 109.789 14.3573C109.581 12.2279 108.097 10.6113 106.257 10.5159C105.103 10.4577 103.912 10.4081 102.716 10.366C100.234 10.278 97.7207 10.2272 95.2484 10.2149C91.4785 10.1913 87.8625 10.1802 84.1965 10.1802C82.4469 10.1802 80.9571 11.5726 80.573 13.5633C79.8802 17.1458 79.2648 20.7902 78.7449 24.395C78.2398 27.8983 77.7125 31.3458 77.1798 34.636C76.6344 37.9781 76.0349 41.3104 75.3962 44.5449C74.9866 46.6297 74.4922 48.7418 73.9213 50.844H71.3504C69.5243 50.844 67.9837 52.3702 67.6855 54.4724C67.3163 57.0775 66.9842 59.7644 66.6998 62.4636C66.5735 63.6727 66.8929 64.8966 67.5762 65.8207C68.111 66.5442 68.8452 67.0459 69.6442 67.2354C69.8607 67.2874 70.0824 67.3172 70.2915 67.3221L77.1968 67.5302C81.9004 67.747 86.5733 67.9043 91.0838 67.9948C95.4511 68.0827 100.036 68.2599 104.71 68.5225L104.805 68.5262C105.857 68.5658 106.783 68.603 107.634 68.6377L107.806 68.6439C109.675 68.717 111.158 68.7764 112.805 68.8185L112.985 68.826C113.996 68.826 114.974 68.3367 115.671 67.4831C116.389 66.6073 116.761 65.4119 116.692 64.1942C116.645 63.3779 116.616 62.5714 116.603 61.7749C117.28 62.4203 117.998 62.9839 118.754 63.4547C118.896 63.5451 119.031 63.6256 119.155 63.6962C121.304 64.9375 123.778 65.6238 126.51 65.734C128.124 65.7984 131.589 65.7191 134.4 65.4652C135.07 66.1775 135.955 66.5987 136.901 66.5987C137.042 66.5987 137.182 66.5888 137.32 66.5702C138.575 66.4091 139.947 66.3187 141.403 66.3001C143.179 66.2741 144.775 66.1329 146.143 65.8839C148.053 65.5395 149.429 63.5067 149.276 61.2596C149.077 58.2952 149.014 55.0707 149.089 51.6802C149.106 50.9344 149.124 50.1837 149.144 49.433C149.186 50.6161 149.234 51.8003 149.288 53.0168C149.371 54.8638 149.481 56.6315 149.616 58.2655C149.756 60.0059 149.92 61.4342 150.104 62.512C150.45 64.5349 151.981 66.0028 153.745 66.0028C153.818 66.0028 153.889 65.9991 153.971 65.9941C155.339 65.8975 156.762 65.7848 158.201 65.6584C159.804 65.5197 161.321 65.3302 162.712 65.0973C164.699 64.7616 166.114 62.5987 165.868 60.276C165.718 58.8613 165.592 57.3475 165.49 55.7793C165.389 54.1949 165.312 52.6315 165.262 51.1302C165.214 49.7353 165.177 48.3566 165.152 47.0274C165.715 47.0187 166.539 47.0075 167.748 46.9951C169.175 46.979 169.827 46.9691 170.066 46.9605C170.395 46.9493 170.745 46.9369 171.114 46.9258C171.044 48.0927 170.93 49.2831 170.774 50.4897C170.369 53.6238 170.028 56.94 169.762 60.3516C169.673 61.5098 169.994 62.6817 170.645 63.5686C171.299 64.4568 172.248 65.0031 173.238 65.0688C174.538 65.1605 176.003 65.2187 177.596 65.2434C179.196 65.2657 180.604 65.2534 181.777 65.2063C183.62 65.1394 185.122 63.5401 185.347 61.4057C185.802 57.1134 186.21 52.8099 186.567 48.5387C187.059 48.8929 187.626 49.1184 188.234 49.1704C188.304 49.1766 188.375 49.1816 188.445 49.1878C188.51 49.8034 188.584 50.4005 188.669 50.9766C188.966 52.997 189.475 54.8688 190.184 56.5374C190.93 58.2977 191.934 59.8808 193.167 61.241C194.414 62.6197 196.003 63.778 197.874 64.6761C198.347 64.9065 198.843 65.1221 199.348 65.3165L199.442 65.3512L199.445 65.3525C200.978 65.931 202.629 66.3212 204.353 66.5144C205.29 66.6185 206.236 66.6718 207.163 66.6718C208.476 66.6718 209.805 66.5677 211.113 66.3633C213.352 66.0102 215.508 65.3847 217.521 64.5014C219.747 63.5253 221.618 62.1986 223.08 60.5609C224.476 59.0013 224.608 56.4147 223.38 54.6755C222.66 53.6523 221.921 52.6625 221.186 51.7359C220.661 51.0732 220.067 50.3683 219.423 49.6424L219.41 49.6275C219.229 49.4231 219.043 49.2175 218.857 49.0131C220.167 48.9499 221.415 48.8706 222.582 48.7753C223.37 48.7108 224.09 48.3578 224.666 47.809C224.69 48.6093 224.718 49.3922 224.75 50.1528C224.854 52.7083 224.975 55.0471 225.111 57.101C225.256 59.2974 225.411 60.8582 225.599 62.014C225.925 64.0257 227.436 65.5085 229.195 65.542C231.885 65.5891 234.8 65.4478 237.859 65.127C238.849 65.0229 239.775 64.4482 240.396 63.5587C241.023 62.6668 241.322 61.4962 241.217 60.3429C241.121 59.2924 241.032 58.1094 240.954 56.8248C240.897 55.8858 240.848 54.9542 240.807 54.0413C241.391 55.0187 242.426 56.6179 244.129 59.223L244.275 59.4473C244.793 60.2388 245.282 60.9858 245.449 61.2559C246.221 62.5021 247.029 63.6169 247.85 64.5708C248.551 65.3834 249.481 65.8306 250.469 65.8306C250.724 65.8306 250.974 65.8009 251.212 65.7427C251.367 65.7067 251.521 65.6683 251.668 65.6312C252.997 65.293 254.31 64.8483 255.573 64.3082C256.834 63.7668 258.057 63.2119 259.213 62.6581C260.226 62.1701 261 61.1927 261.334 59.9762C261.678 58.7461 261.536 57.4219 260.951 56.333ZM209.075 30.8825C209.263 31.4189 209.394 32.0184 209.469 32.6713C208.68 32.6824 207.879 32.6874 207.074 32.6874H204.611C204.67 32.1733 204.779 31.6827 204.935 31.2219C205.093 30.7499 205.329 30.3833 205.695 30.0376C205.699 30.0352 206.04 29.7688 207.191 29.7688C208.164 29.7688 208.483 29.9745 208.485 29.9745C208.755 30.2098 208.938 30.4898 209.075 30.8825ZM212.145 49.2348C211.423 49.599 210.645 49.8988 209.831 50.1268C209.1 50.3324 208.318 50.4352 207.507 50.4352C206.893 50.4352 206.255 50.2779 205.612 49.9682C205.327 49.8307 205.216 49.7192 205.181 49.6771L205.16 49.6511C205.139 49.6213 205.111 49.5644 205.084 49.4368C205.078 49.4083 205.073 49.3785 205.066 49.3488C205.345 49.3463 205.633 49.3426 205.93 49.3389C207.777 49.3154 209.658 49.2819 211.52 49.2386C211.732 49.2336 211.947 49.2286 212.164 49.2237C212.157 49.2286 212.151 49.2311 212.145 49.2348ZM91.4159 48.281C91.9592 45.4603 92.4536 42.6025 92.8855 39.7855C93.312 37.0119 93.7354 34.164 94.1418 31.3198C94.2341 30.6694 94.3317 30.0141 94.4325 29.3551C94.4484 29.9435 94.4633 30.5245 94.4771 31.1005C94.546 33.8035 94.5789 36.5437 94.5747 39.2405C94.5683 41.915 94.5121 44.6006 94.4049 47.2243C94.3444 48.7046 94.2808 50.2023 94.2139 51.7049C93.5232 51.6802 92.8218 51.648 92.112 51.6083C91.6324 51.5823 91.1783 51.5588 90.7464 51.5365C90.982 50.455 91.2058 49.3674 91.4159 48.281ZM132.683 49.4776C132.319 49.5321 130.926 49.5346 129.361 49.3946C128.419 49.3104 128.005 49.2249 127.88 49.194C127.618 49.0577 127.499 48.919 127.414 48.7926C127.159 48.4173 126.953 47.9663 126.802 47.4448C126.615 46.8044 126.492 46.0599 126.438 45.2311C126.377 44.2934 126.387 43.3172 126.471 42.3299L126.474 42.2953C126.524 41.6189 126.601 40.7418 126.703 39.6839C126.8 38.6657 126.933 37.6065 127.101 36.5288C127.253 35.5365 127.465 34.543 127.729 33.5793C127.936 32.8286 128.168 32.1609 128.418 31.5898C128.883 31.513 130.069 31.3619 132.734 31.2219C133.017 31.207 133.301 31.2207 133.588 31.264C133.56 33.9645 133.443 36.8348 133.239 39.8252C133.025 42.9778 132.888 46.2085 132.828 49.4553C132.78 49.464 132.732 49.4714 132.683 49.4776Z" fill="#034163"/>
<path d="M184.851 40.3651C184.38 47.1684 183.768 54.1315 183.032 61.0637C182.95 61.8515 182.386 62.4511 181.706 62.4759C180.533 62.5217 179.159 62.5329 177.625 62.5118C176.08 62.4883 174.653 62.4325 173.381 62.3421C173.009 62.3173 172.66 62.1154 172.416 61.7846C172.173 61.4539 172.055 61.0216 172.088 60.588C172.351 57.2235 172.686 53.9618 173.083 50.8897C173.385 48.5534 173.536 46.2753 173.533 44.0938C172.945 44.1297 172.431 44.152 172 44.1656C171.267 44.1892 170.598 44.2102 169.997 44.2313C169.755 44.24 168.977 44.2511 167.726 44.2647C166.232 44.2808 164.185 44.3056 163.839 44.3279C163.528 44.3515 163.173 44.3849 162.779 44.4283C162.786 45.1641 162.797 45.9408 162.812 46.7559C162.837 48.1793 162.877 49.6844 162.93 51.2328C162.981 52.7763 163.059 54.3694 163.162 55.9761C163.265 57.5704 163.394 59.1275 163.55 60.6029C163.643 61.4737 163.12 62.269 162.377 62.3941C161.033 62.6196 159.569 62.8017 158.026 62.9355C156.535 63.0655 155.123 63.177 153.828 63.2687C153.799 63.2699 153.772 63.2724 153.743 63.2724C153.09 63.2724 152.52 62.7335 152.39 61.9729C152.223 60.9894 152.07 59.6527 151.937 58.0039C151.805 56.3898 151.697 54.663 151.617 52.8692C151.534 51.0173 151.47 49.3301 151.419 47.711C151.392 46.8327 151.371 46.0362 151.358 45.3239H151.223C150.525 45.3239 149.936 44.7157 149.851 43.908C149.813 43.5326 149.776 43.1375 149.74 42.7175V42.715C149.678 41.9792 149.622 41.174 149.569 40.2784C149.489 38.9009 149.448 37.6274 149.448 36.4927C149.448 35.6528 150.001 34.9529 150.718 34.886L151.188 34.8414C151.196 34.1217 151.206 33.376 151.221 32.6129C151.246 31.2837 151.288 29.9111 151.34 28.5398C151.393 27.1536 151.475 25.7489 151.582 24.3602C151.688 22.9703 151.824 21.6448 151.987 20.4172C152.09 19.6306 152.669 19.0521 153.351 19.0521C153.716 19.0521 154.282 19.0632 155.078 19.0855C155.841 19.1066 156.658 19.1425 157.511 19.1859C157.877 19.2057 158.235 19.2267 158.584 19.249C159.058 19.2813 159.517 19.3159 159.957 19.3531C160.783 19.4249 161.394 19.5104 161.825 19.6145C162.511 19.7768 162.982 20.5113 162.924 21.3252C162.873 22.0672 162.82 23.1066 162.771 24.411C162.72 25.7402 162.678 27.1301 162.655 28.546C162.627 29.921 162.616 31.2688 162.616 32.5509V33.5667C162.98 33.5382 163.307 33.5122 163.594 33.4924C163.918 33.4701 164.989 33.4515 166.72 33.423C167.965 33.4045 169.516 33.3784 169.787 33.3599C170.407 33.3153 171.111 33.2806 171.888 33.257C172.381 33.2434 172.979 33.2149 173.678 33.1716C173.704 32.5249 173.711 31.8399 173.696 31.1301C173.671 29.838 173.618 28.5138 173.542 27.1945C173.46 25.7551 173.394 24.4457 173.343 23.1883C173.29 21.9012 173.263 20.7157 173.263 19.6677C173.263 18.8341 173.81 18.1366 174.522 18.0635C174.965 18.0177 175.581 17.9719 176.349 17.926C177.113 17.8814 177.901 17.8381 178.718 17.7935C179.563 17.7477 180.391 17.7241 181.187 17.7241H183C183.694 17.7241 184.28 18.3274 184.369 19.1301C185.168 26.3212 185.331 33.4639 184.851 40.3651Z" fill="#A6DD47"/>
<path d="M184.851 40.3653C184.38 47.1686 183.768 54.1317 183.032 61.0639C182.95 61.8517 182.386 62.4513 181.706 62.4761C180.533 62.5219 179.159 62.5331 177.625 62.512C176.08 62.4885 174.653 62.4327 173.381 62.3423C173.381 62.3423 180.522 61.1332 180.924 58.8601C181.324 56.5894 183.557 32.1981 181.19 17.728H183.003C183.698 17.728 184.283 18.3313 184.373 19.134C185.168 26.3201 185.331 33.4641 184.851 40.3653Z" fill="#8EBA38"/>
<path d="M162.927 21.3264C162.876 22.0684 162.823 23.1078 162.773 24.4122C162.722 25.7414 162.68 27.1313 162.656 28.5472C162.628 29.9222 162.617 31.27 162.617 32.5521V33.5679H159.25C159.25 33.5679 159.595 22.8873 159.556 21.4168C159.539 20.7962 159.095 19.9836 158.586 19.2515C159.06 19.2837 159.519 19.3184 159.959 19.3555C160.785 19.4274 161.396 19.5128 161.827 19.6169C162.513 19.7779 162.984 20.5138 162.927 21.3264Z" fill="#8EBA38"/>
<path d="M159.518 42.3545C154.33 42.6221 150.31 44.2337 149.742 42.7175C149.778 43.1374 149.816 43.5326 149.853 43.9079C149.938 44.7156 150.527 45.3238 151.225 45.3238H151.36C151.36 45.3238 155.016 45.5183 157.116 45.2062C157.861 45.0959 158.544 44.9881 159.117 44.894C159.332 48.5137 160.725 54.959 161.083 57.5022C161.579 61.0203 156.33 62.9416 153.746 63.2736C153.775 63.2736 153.803 63.2724 153.831 63.2699C155.126 63.1782 156.538 63.0667 158.029 62.9367C159.573 62.8029 161.036 62.6208 162.38 62.3953C163.123 62.2702 163.646 61.4749 163.554 60.6041C163.398 59.1287 163.268 57.5716 163.165 55.9773C163.062 54.3706 162.984 52.7763 162.933 51.234C162.88 49.6856 162.841 48.1805 162.815 46.7571C162.8 45.942 162.79 45.1653 162.782 44.4295C163.176 44.3849 163.531 44.3514 163.842 44.3291C164.188 44.3068 166.235 44.282 167.729 44.2659C168.98 44.2523 169.759 44.2412 170.001 44.2325C170.602 44.2114 171.271 44.1904 172.004 44.1668C172.436 44.1532 172.949 44.1297 173.537 44.095C173.534 44.0938 160.931 41.7302 159.518 42.3545Z" fill="#8EBA38"/>
<path d="M153.108 20.3921C152.786 21.4227 152.575 22.4757 152.417 23.5373C152.259 24.5989 152.163 25.6692 152.113 26.7433C152.068 27.8173 152.073 28.895 152.142 29.9715C152.216 31.0467 152.337 32.1245 152.612 33.1774C152.778 32.0985 152.886 31.0405 152.974 29.9802C153.06 28.921 153.127 27.8643 153.169 26.8052C153.217 25.746 153.24 24.6857 153.242 23.6203C153.237 23.0864 153.238 22.5525 153.215 22.0149C153.194 21.4773 153.171 20.9384 153.108 20.3921Z" fill="#D3EEA3"/>
<path d="M153.108 46.2305C152.877 47.4482 152.764 48.6808 152.722 49.9108C152.68 51.1422 152.698 52.3735 152.777 53.5999C152.853 54.8263 152.982 56.0477 153.173 57.258C153.368 58.467 153.611 59.6711 153.985 60.8417C154.047 59.5955 154.032 58.3729 154 57.1539C153.964 55.935 153.908 54.7222 153.831 53.5107C153.753 52.2992 153.663 51.0902 153.551 49.8799C153.429 48.6684 153.316 47.4568 153.108 46.2305Z" fill="#D3EEA3"/>
<path d="M151.078 36.6898C151.092 36.6699 151.101 36.66 151.101 36.66C151.097 36.6724 151.086 36.6836 151.078 36.6898ZM160.951 34.9282C159.535 34.9282 158.121 34.9691 156.707 35.0533C155.875 35.1054 155.044 35.1698 154.212 35.2565C153.38 35.3482 152.551 35.4473 151.711 35.6195C151.501 35.6603 151.29 35.7124 151.065 35.7817L150.978 35.8115C150.95 35.8201 150.92 35.8313 150.884 35.8486L150.782 35.8957C150.729 35.9254 150.665 35.9725 150.615 36.0196C150.471 36.1955 150.413 36.3702 150.376 36.5138C150.303 36.8099 150.287 37.0701 150.281 37.329C150.274 37.5866 150.283 37.8369 150.295 38.0858C150.324 38.5826 150.376 39.0707 150.448 39.5538C150.517 40.0369 150.598 40.5175 150.7 40.992C150.731 40.0146 150.74 39.0409 150.815 38.0933C150.835 37.8579 150.855 37.6225 150.891 37.3983C150.924 37.1753 150.966 36.9499 151.031 36.7889C151.045 36.7455 151.063 36.7145 151.077 36.6935L151.117 36.6836C151.13 36.6786 151.149 36.6736 151.172 36.6699L151.237 36.6563C151.418 36.6241 151.619 36.6018 151.821 36.582C152.629 36.5101 153.458 36.4705 154.282 36.4247L156.763 36.2859C158.418 36.1856 160.074 36.0629 161.73 35.8982C163.385 35.7297 165.041 35.5327 166.694 35.2169C165.027 35.0211 163.363 34.953 161.698 34.9307C161.447 34.9295 161.199 34.9282 160.951 34.9282Z" fill="#D3EEA3"/>
<path d="M174.781 19.5908C174.456 20.837 174.326 22.1414 174.244 23.4285C174.165 24.7206 174.14 26.0138 174.159 27.3022C174.196 29.7178 174.342 32.1222 174.614 34.518C174.032 34.575 173.449 34.6406 172.868 34.7187C172.499 34.7695 172.131 34.8202 171.764 34.8822C171.396 34.9429 171.029 35.0061 170.662 35.0853C171.032 35.1436 171.401 35.1857 171.771 35.2253C172.142 35.2674 172.511 35.2972 172.88 35.3269C173.619 35.3839 174.357 35.4198 175.095 35.4458H175.12C175.339 35.4372 175.511 35.2228 175.502 34.9677L175.501 34.9156C175.464 33.6385 175.415 32.3576 175.357 31.0816C175.296 29.8045 175.231 28.5285 175.158 27.2538L174.934 23.431L174.879 22.4747C174.868 22.1563 174.85 21.8367 174.832 21.5171L174.794 20.5571C174.788 20.2375 174.791 19.9179 174.781 19.5908Z" fill="#D3EEA3"/>
<path d="M175.086 44.1592C174.699 45.4686 174.419 46.8015 174.19 48.1431C173.96 49.4846 173.785 50.8361 173.655 52.1926C173.523 53.549 173.442 54.9129 173.411 56.2805C173.384 57.6481 173.399 59.0207 173.54 60.397C173.838 59.0566 174.051 57.7138 174.238 56.3697C174.423 55.0257 174.576 53.6791 174.705 52.3289C174.834 50.9786 174.936 49.6259 175.011 48.2669C175.078 46.9068 175.132 45.5441 175.086 44.1592Z" fill="#D3EEA3"/>
<path d="M114.073 55.7831C113.83 55.4536 113.484 55.2541 113.113 55.2256C112.578 55.1872 112.044 55.1513 111.519 55.1216C110.83 55.0819 110.152 55.051 109.49 55.0262C108.912 55.0051 108.629 54.9766 108.303 54.9432C108.523 48.5474 108.603 41.9683 108.541 35.3595C108.473 28.1945 108.113 21.2313 107.472 14.6634C107.394 13.8755 106.838 13.2698 106.158 13.2351C105 13.1769 103.828 13.1273 102.646 13.0864C100.206 12.9997 97.725 12.9489 95.2357 12.9365C91.3045 12.9118 87.6927 12.9019 84.1966 12.9019C83.5483 12.9019 82.9912 13.4234 82.849 14.1604C82.1604 17.7207 81.5545 21.3156 81.0452 24.8448C80.5444 28.3183 80.015 31.7832 79.4717 35.1427C78.921 38.5233 78.3152 41.8878 77.67 45.152C77.113 47.9887 76.4116 50.8354 75.5914 53.6264C75.1415 53.5855 74.854 53.5669 73.9924 53.5669H71.3504C70.6735 53.5669 70.0984 54.1368 69.988 54.9159C69.6166 57.5359 69.292 60.1844 69.0172 62.7908C68.9705 63.2405 69.0882 63.6939 69.344 64.0395C69.5445 64.3108 69.8172 64.4966 70.1143 64.5647C70.1928 64.5845 70.2713 64.5944 70.353 64.5969L77.2753 64.805C82.0055 65.0243 86.6667 65.1791 91.1252 65.2683C95.5052 65.3563 100.112 65.5347 104.823 65.7998H104.845C105.914 65.8406 106.855 65.8778 107.715 65.9125C109.683 65.9905 111.234 66.0525 112.958 66.0958L112.987 66.0995C113.365 66.0995 113.726 65.9199 113.986 65.5991C114.254 65.2733 114.392 64.8298 114.367 64.3764C114.217 61.806 114.231 59.3136 114.405 56.9735C114.434 56.5412 114.317 56.1114 114.073 55.7831ZM96.7361 47.3545C96.6438 49.6152 96.5398 52.0061 96.4231 54.4873C95.0034 54.4663 93.5221 54.413 92.0048 54.33C90.5862 54.2544 89.1559 54.1801 87.7384 54.1132C88.2583 51.9701 88.7262 49.8147 89.1389 47.684C89.6748 44.898 90.1629 42.0786 90.5894 39.305C91.0276 36.4595 91.4467 33.624 91.8404 30.8752C92.182 28.4757 92.5831 26.0167 93.0383 23.5516C93.537 23.559 94.1163 23.5652 94.7816 23.5763C95.4246 23.59 96.0305 23.5986 96.5928 23.6048C96.6862 26.3586 96.7573 28.7977 96.8114 31.0213C96.8825 33.8024 96.9143 36.5685 96.9101 39.2492C96.9027 41.9089 96.8464 44.6366 96.7361 47.3545Z" fill="#E30613"/>
<path d="M108.303 54.9432L105.029 54.8503C105.029 54.8503 105.258 51.9776 105.316 47.9677C105.373 43.9665 105.718 13.3354 102.645 13.0864C103.826 13.1273 104.998 13.1769 106.157 13.2351C106.838 13.271 107.394 13.8755 107.471 14.6634C108.112 21.2313 108.472 28.1957 108.54 35.3595C108.603 41.9683 108.523 48.5474 108.303 54.9432Z" fill="#B50617"/>
<path d="M114.403 56.9738C114.229 59.3138 114.215 61.805 114.364 64.3766C114.39 64.83 114.253 65.2723 113.983 65.5993C113.724 65.9202 113.363 66.0998 112.985 66.0998L112.956 66.0961C111.231 66.0515 109.68 65.9908 107.713 65.9127C106.853 65.878 105.912 65.8409 104.843 65.8H104.821C100.11 65.5349 95.5042 65.3578 91.1242 65.2698C86.6656 65.1794 82.0044 65.0245 77.2743 64.8065L70.352 64.5984C70.2703 64.5971 70.1918 64.586 70.1132 64.5662L70.1122 64.5649C73.9245 64.9006 111.44 63.5182 111.974 62.8046C112.509 62.0924 112.394 55.4092 111.518 55.123C112.043 55.1528 112.577 55.1887 113.112 55.2271C113.483 55.2556 113.829 55.4538 114.072 55.7845C114.317 56.1116 114.434 56.5414 114.403 56.9738Z" fill="#B50617"/>
<path d="M96.5907 23.6037C96.0283 23.5987 95.4235 23.5901 94.7795 23.5752C94.1153 23.564 93.5349 23.5579 93.0362 23.5504C92.582 26.0156 92.1799 28.4733 91.8382 30.874C91.4456 33.6229 91.0255 36.4584 90.5873 39.3051C90.1618 42.0787 89.6737 44.8981 89.1368 47.6841C88.724 49.8148 88.2561 51.9703 87.7362 54.1133L84.4225 54.1604C84.4225 54.1604 86.7123 49.1706 88.3527 39.2815C89.9941 29.3925 90.2223 21.8632 92.0059 21.7294C93.7927 21.5969 96.5907 23.6037 96.5907 23.6037Z" fill="#B50617"/>
<path d="M85.6205 14.4429C85.4804 14.4429 85.3404 14.4441 85.1982 14.4491C85.0815 14.4528 84.9637 14.4565 84.8332 14.48C84.7664 14.4937 84.6995 14.5073 84.6337 14.5246L84.4332 14.6089C84.1658 14.7451 83.9483 15.009 83.8188 15.284C83.683 15.559 83.6066 15.8427 83.5515 16.1177C83.491 16.3939 83.456 16.6652 83.422 16.9353C83.3573 17.4741 83.3159 18.0031 83.2703 18.5283C83.2469 18.7897 83.231 19.056 83.2013 19.3112C83.1684 19.5652 83.1419 19.8154 83.1058 20.0731C83.0273 20.5921 82.9562 21.1087 82.8724 21.6277L82.3737 24.7408L81.8654 27.855L81.3476 30.968C81.007 33.0442 80.658 35.1192 80.3036 37.1916C79.9598 39.2666 79.6086 41.3403 79.2446 43.4102C78.8818 45.4802 78.5316 47.5527 78.1369 49.6115C78.0361 50.1256 77.9491 50.6446 77.8451 51.1563L77.5417 52.6961C77.4366 53.2064 77.3188 53.7118 77.2085 54.2197C77.1565 54.4774 77.0896 54.7214 77.0217 54.9655L76.8923 55.4511C76.1697 55.487 75.4471 55.5167 74.7246 55.5403L73.5107 55.5712C73.1065 55.5824 72.7011 55.5911 72.299 55.5923H72.2799C72.2024 55.5935 72.1292 55.6443 72.0942 55.731C71.8852 56.2501 71.7144 56.7654 71.5584 57.2956C71.4024 57.8233 71.2772 58.3622 71.169 58.9035C71.0608 59.4449 70.9759 59.9936 70.926 60.5449C70.8676 61.0961 70.8591 61.6511 70.8623 62.2024C70.9037 61.6524 70.9568 61.1061 71.0586 60.5697C71.1552 60.0333 71.2666 59.5006 71.4109 58.9803C71.551 58.4588 71.7144 57.9472 71.8926 57.443C72.0528 56.9946 72.229 56.5474 72.4221 56.1262C73.1924 56.1782 73.9574 56.2092 74.7256 56.229C75.5384 56.2513 76.3512 56.2649 77.1639 56.2724H77.166C77.1671 56.2724 77.1671 56.2724 77.1682 56.2724C77.3082 56.2724 77.4398 56.1708 77.4897 56.0073L77.7252 55.2405C77.8048 54.9841 77.8833 54.7276 77.9438 54.4725C78.0722 53.9608 78.2091 53.4492 78.3311 52.9364C78.5645 51.9094 78.8128 50.885 79.0186 49.8531C79.2372 48.8224 79.442 47.7905 79.6457 46.7574C79.8516 45.7243 80.05 44.6911 80.2388 43.6555C80.6166 41.5831 80.9816 39.5094 81.3392 37.4332C81.684 35.3533 82.0182 33.2722 82.3472 31.191C82.674 29.1087 82.9721 27.0189 83.2692 24.9291C83.4199 23.8848 83.5536 22.8355 83.6851 21.7863C83.7531 21.2623 83.8093 20.7321 83.8719 20.2056C83.9005 19.9393 83.9228 19.663 83.9483 19.393C83.9716 19.1229 83.9791 18.8603 83.9939 18.5952C84.0183 18.0663 84.0364 17.5398 84.0756 17.0269C84.0968 16.773 84.1191 16.5178 84.1605 16.2787C84.1976 16.0372 84.2528 15.8068 84.3356 15.6185C84.4173 15.4277 84.5244 15.2877 84.6698 15.1998C84.7091 15.1812 84.7483 15.1626 84.7865 15.1415L84.9191 15.1056C85.0104 15.0821 85.1207 15.0722 85.229 15.0585C85.6682 15.0127 86.1224 14.9904 86.5733 14.9693C88.3814 14.895 90.1958 14.8418 92.008 14.7588C91.1019 14.6981 90.1968 14.6336 89.2907 14.5866C88.3845 14.5333 87.4784 14.4912 86.5701 14.4652C86.255 14.4528 85.9399 14.4429 85.6205 14.4429Z" fill="#F18389"/>
<path d="M96.5631 14.1689C96.3297 14.1689 96.0963 14.2073 95.8618 14.299C95.6273 14.3932 95.3917 14.5245 95.1562 14.7809C95.3896 15.0386 95.6241 15.1736 95.8575 15.2702C96.091 15.3644 96.3265 15.404 96.561 15.404C96.5621 15.404 96.5621 15.404 96.5631 15.404C96.7987 15.4015 97.0332 15.3619 97.2677 15.2677C97.5022 15.1711 97.7356 15.0373 97.9701 14.7809C97.7345 14.5269 97.5001 14.3944 97.2645 14.3015C97.0311 14.2073 96.7966 14.1702 96.5631 14.1689Z" fill="#F18389"/>
<path d="M98.352 56.0168L98.3552 56.0156C98.3542 56.0156 98.3531 56.0156 98.352 56.0168ZM98.7468 33.8887C98.5696 36.8369 98.49 39.7827 98.4359 42.7273C98.3733 45.6706 98.3573 48.6139 98.3244 51.5498C98.3181 52.2831 98.3085 53.0165 98.2905 53.7461C98.2756 54.4721 98.2576 55.2141 98.2003 55.8979C98.195 55.9499 98.1908 56.0032 98.1844 56.0527C98.1536 56.0577 98.1218 56.0626 98.0889 56.0676C97.8003 56.106 97.4894 56.1308 97.1806 56.1506C96.5599 56.1865 95.9318 56.2125 95.3047 56.2361C92.7911 56.3129 90.2658 56.3649 87.7383 56.5197C90.252 56.8777 92.772 57.0945 95.3026 57.1986C95.8384 57.2221 96.3742 57.2395 96.9143 57.2395C97.013 57.2395 97.1117 57.2395 97.2103 57.2382C97.5318 57.2345 97.8512 57.2296 98.1897 57.1961C98.2746 57.1874 98.3626 57.1763 98.4592 57.1589C98.5101 57.1478 98.5579 57.1404 98.6247 57.1181C98.6502 57.1119 98.7011 57.0908 98.7446 57.0698L98.7616 57.0611L98.7924 57.0425C98.8125 57.0289 98.8327 57.0152 98.8529 56.9991C98.8741 56.9806 98.8868 56.9731 98.9133 56.9446C98.9377 56.9186 98.9611 56.8889 98.9812 56.8579C98.9919 56.8431 99.0014 56.8269 99.011 56.8108L99.0247 56.7848L99.0481 56.7353L99.0693 56.6845L99.081 56.6523L99.1022 56.5854L99.1149 56.5334C99.1245 56.4974 99.1309 56.4665 99.1362 56.438L99.1521 56.3513C99.1722 56.2398 99.1839 56.1419 99.1966 56.0416C99.2815 55.2624 99.3049 54.5303 99.3346 53.7858C99.3579 53.0438 99.3706 52.3054 99.3813 51.5659C99.4099 48.6114 99.3632 45.6644 99.2571 42.7186C99.1574 39.7728 99.0067 36.8295 98.7468 33.8887Z" fill="#F18389"/>
<path d="M98.5813 23.5503C98.368 24.0235 98.2651 24.4942 98.1908 24.965C98.1218 25.4345 98.0921 25.904 98.1006 26.3722C98.108 26.8405 98.1515 27.3075 98.2375 27.7745C98.3277 28.2403 98.4465 28.706 98.6767 29.1706C98.8911 28.6974 98.994 28.2266 99.0683 27.7559C99.1372 27.2864 99.1659 26.8169 99.1574 26.3487C99.1489 25.8804 99.1043 25.4134 99.0195 24.9464C98.9282 24.4781 98.8104 24.0136 98.5813 23.5503Z" fill="#F18389"/>
<path d="M147.428 18.3574C147.403 17.5287 146.843 16.8572 146.133 16.804C145.253 16.7408 144.274 16.6987 143.208 16.6789C142.776 16.6714 142.329 16.6689 141.87 16.6689H137.376C136.702 16.6689 136.129 17.2388 136.015 18.0068C134.749 17.7566 133.496 17.598 132.276 17.5324C130.687 17.4481 125.723 17.5794 124.04 18.0353C122.416 18.4751 120.912 19.2183 119.574 20.2453C118.198 21.2995 117.048 22.7216 116.154 24.467C115.472 25.7603 114.91 27.2022 114.484 28.7507C114.077 30.2359 113.721 31.7497 113.426 33.2561C113.126 34.7934 112.905 36.3158 112.77 37.7788C112.635 39.2244 112.54 40.5698 112.488 41.7639C112.377 43.912 112.463 45.9943 112.741 47.9516C113.022 49.9348 113.494 51.798 114.144 53.4814C114.803 55.1897 115.646 56.7307 116.654 58.0612C117.601 59.3111 118.68 60.3182 119.861 61.0528C119.97 61.1222 120.079 61.1891 120.192 61.2522C122.04 62.3213 124.194 62.9122 126.591 63.0088C128.37 63.0794 132.707 62.963 135.549 62.605C135.566 62.6681 135.582 62.7301 135.6 62.7895C135.796 63.4424 136.323 63.871 136.902 63.871C136.953 63.871 137.005 63.8673 137.055 63.8598C138.371 63.6901 139.823 63.5923 141.375 63.5724C143.037 63.5477 144.522 63.4188 145.787 63.1884C146.5 63.0596 147.008 62.3101 146.95 61.469C146.744 58.4093 146.68 55.0906 146.757 51.6047C146.837 48.047 146.943 44.379 147.073 40.6998C147.203 36.9848 147.323 33.204 147.428 29.4605C147.533 25.6897 147.533 21.9548 147.428 18.3574ZM135.565 40.0408C135.304 43.8909 135.159 47.8364 135.132 51.793C134.439 51.9416 133.72 52.0705 132.983 52.1795C132.304 52.2823 130.604 52.2377 129.184 52.1101C128.216 52.0234 127.378 51.8983 127.077 51.7546C126.453 51.4598 125.967 51.0473 125.589 50.4898C125.165 49.8667 124.83 49.1396 124.594 48.3244C124.344 47.466 124.181 46.496 124.112 45.4418C124.04 44.3455 124.052 43.2145 124.15 42.0612C124.201 41.37 124.28 40.4706 124.385 39.3867C124.486 38.3164 124.627 37.1953 124.805 36.0507C124.976 34.9383 125.213 33.8271 125.509 32.7482C125.79 31.7274 126.116 30.8194 126.479 30.0464C126.744 29.5893 127.099 29.2499 127.561 29.0096C127.689 28.9637 128.569 28.7147 132.629 28.5017C133.333 28.4645 134.051 28.5487 134.758 28.7544C135.182 28.8758 135.572 29.0343 135.927 29.2301C135.945 32.5747 135.825 36.208 135.565 40.0408Z" fill="#F7931E"/>
<path d="M147.428 29.4593C147.322 33.2029 147.203 36.9836 147.073 40.6987C146.944 44.3766 146.838 48.0446 146.757 51.6036C146.68 55.0895 146.746 58.4081 146.95 61.4679C147.008 62.309 146.5 63.0585 145.787 63.1873C144.522 63.4177 143.037 63.5466 141.375 63.5713C139.823 63.5911 138.371 63.689 137.055 63.8587C137.005 63.8662 136.954 63.8699 136.902 63.8699C136.322 63.8699 135.796 63.4413 135.6 62.7884C135.582 62.729 135.565 62.667 135.549 62.6038C132.707 62.9618 128.37 63.0783 126.591 63.0077C124.194 62.9111 122.04 62.3202 120.192 61.2511C120.08 61.1879 119.97 61.121 119.861 61.0517C127.632 64.4694 133.745 59.061 135.651 59.1279C137.559 59.1948 141.604 60.3976 143.208 60.1288C144.813 59.8625 143.322 58.1914 143.493 52.2366C143.664 46.2818 144.809 18.4331 143.208 16.6802V16.6777C144.274 16.6976 145.253 16.7397 146.133 16.8028C146.843 16.8561 147.403 17.5275 147.428 18.3563C147.533 21.9549 147.533 25.6898 147.428 29.4593Z" fill="#D8730F"/>
<path d="M135.926 29.2299C135.571 29.0341 135.181 28.8756 134.757 28.7542C134.05 28.5498 133.333 28.4655 132.628 28.5015C128.567 28.7145 127.688 28.9635 127.56 29.0094C127.097 29.2497 126.743 29.5891 126.478 30.0462C126.114 30.8192 125.788 31.7272 125.508 32.748C125.211 33.8269 124.975 34.9381 124.804 36.0505C124.626 37.1951 124.486 38.3162 124.384 39.3865C124.28 40.4705 124.201 41.3698 124.149 42.061C124.051 43.2143 124.039 44.3441 124.111 45.4416C124.18 46.4958 124.342 47.4658 124.593 48.3242C124.828 49.1394 125.164 49.8678 125.588 50.4896C125.966 51.0471 126.452 51.4596 127.076 51.7544C127.376 51.8993 128.214 52.0245 129.183 52.1099C123.973 52.1099 123.001 50.2394 122.316 44.157C121.628 38.0771 122.83 29.189 124.776 27.6182C126.721 26.0512 131.822 24.3578 135.926 29.2299Z" fill="#D8730F"/>
<path d="M131.192 19.2207C130.817 19.2207 130.441 19.2541 130.067 19.326C129.592 19.4239 129.118 19.5676 128.662 19.8537C129.142 20.0816 129.605 20.1969 130.068 20.2935C130.531 20.3827 130.989 20.4372 131.45 20.4607C131.616 20.4694 131.783 20.4743 131.949 20.4743C132.245 20.4743 132.543 20.4595 132.844 20.4297C133.313 20.3765 133.786 20.2997 134.276 20.1027C133.835 19.7843 133.374 19.6022 132.909 19.4623C132.444 19.3285 131.97 19.2517 131.495 19.2281C131.395 19.2232 131.293 19.2207 131.192 19.2207Z" fill="#FBC98F"/>
<path d="M123.066 21.2573C121.601 21.8495 120.249 22.8851 119.158 24.2267C118.067 25.5744 117.25 27.1997 116.632 28.8906C116.319 29.7367 116.05 30.6026 115.82 31.4796C115.585 32.3555 115.39 33.2424 115.213 34.1306C115.037 35.02 114.889 35.9157 114.75 36.8101C114.616 37.7057 114.497 38.6038 114.387 39.5019C114.334 39.9503 114.282 40.4 114.241 40.8584L114.176 41.5434C114.155 41.7713 114.146 42.0017 114.131 42.2309L114.093 42.9197L114.079 43.6109C114.077 43.8413 114.064 44.0705 114.07 44.3021L114.084 44.9934L114.092 45.339L114.112 45.6846L114.152 46.3758C114.169 46.6062 114.196 46.8354 114.218 47.0646C114.242 47.2938 114.263 47.5242 114.299 47.7521C114.412 48.6676 114.601 49.5706 114.826 50.4576C115.289 52.229 115.997 53.9187 116.957 55.3866C117.443 56.1138 117.976 56.7964 118.578 57.3848C119.177 57.9732 119.826 58.5009 120.54 58.8589C120.21 58.6235 119.902 58.351 119.61 58.0587C119.317 57.7688 119.037 57.4641 118.777 57.137C118.252 56.4916 117.784 55.7868 117.379 55.0398C116.969 54.2965 116.619 53.5124 116.331 52.6985C116.045 51.8846 115.797 51.0534 115.618 50.1987C115.265 48.4892 115.085 46.7326 115.082 44.9674C115.083 44.5264 115.077 44.0854 115.1 43.6444L115.122 42.9829L115.169 42.3214C115.186 42.1008 115.195 41.8803 115.215 41.6598L115.281 40.9996C115.321 40.5611 115.375 40.1176 115.43 39.6716C115.643 37.894 115.884 36.125 116.19 34.3771C116.494 32.6292 116.878 30.9061 117.395 29.2449C117.655 28.4149 117.965 27.6097 118.315 26.8305C118.666 26.0514 119.072 25.3069 119.547 24.6206C120.483 23.2369 121.695 22.1022 123.066 21.2573Z" fill="#FBC98F"/>
<path d="M137.059 53.8936C137.06 53.8936 137.06 53.8936 137.06 53.8936L137.097 53.8899L137.085 53.8912L137.059 53.8936ZM137.571 37.9668C137.347 40.3167 137.254 42.6716 137.197 45.0216C137.127 47.3691 137.135 49.7252 137.05 52.0367C137.026 52.6078 136.997 53.1937 136.917 53.7004C136.905 53.7772 136.891 53.8528 136.877 53.9159C136.665 53.9444 136.46 53.9729 136.252 54.0051L133.268 54.4511C132.772 54.5242 132.274 54.5836 131.776 54.6493C131.279 54.715 130.781 54.7707 130.283 54.8153C129.786 54.8673 129.287 54.8995 128.788 54.9119C128.702 54.9144 128.617 54.9144 128.532 54.9144C128.367 54.9144 128.204 54.9107 128.04 54.8983C127.791 54.8822 127.543 54.8525 127.295 54.7843C127.754 55.0482 128.266 55.1597 128.769 55.2526C129.275 55.343 129.784 55.3851 130.292 55.4211C130.8 55.4483 131.308 55.4557 131.815 55.457C131.828 55.457 131.84 55.457 131.853 55.457C132.348 55.457 132.843 55.4322 133.336 55.4111C134.348 55.369 135.358 55.2724 136.361 55.1696L137.104 55.0915L137.147 55.0878L137.17 55.0853L137.181 55.0841C137.201 55.0816 137.222 55.0779 137.242 55.0742C137.413 55.0395 137.52 54.9392 137.594 54.8587C137.731 54.6939 137.765 54.5799 137.807 54.4734C137.879 54.2678 137.911 54.1018 137.942 53.937C137.998 53.61 138.027 53.304 138.051 52.9993C138.076 52.6945 138.093 52.3947 138.105 52.095C138.151 50.8995 138.147 49.719 138.129 48.5397C138.108 47.3604 138.075 46.1848 138.018 45.0104C137.921 42.663 137.784 40.318 137.571 37.9668Z" fill="#FBC98F"/>
<path d="M137.826 28.4927C137.577 28.9225 137.441 29.366 137.336 29.812C137.236 30.2592 137.18 30.7088 137.162 31.161C137.144 31.6131 137.165 32.0678 137.23 32.5224C137.3 32.977 137.4 33.4329 137.613 33.8888C137.844 33.4453 137.966 32.9993 138.061 32.5546C138.151 32.1099 138.202 31.6639 138.218 31.2167C138.235 30.7695 138.218 30.3211 138.163 29.8689C138.102 29.4156 138.017 28.9609 137.826 28.4927Z" fill="#FBC98F"/>
<path d="M223.866 36.7701C223.852 36.1792 223.828 35.5871 223.794 34.9937C223.691 33.2124 223.495 31.4298 223.212 29.6708C222.809 27.1858 222.019 24.9312 220.865 22.9653C219.678 20.9498 217.972 19.3085 215.79 18.0858C214.375 17.2942 212.651 16.7578 210.637 16.4841C209.592 16.3428 208.468 16.271 207.27 16.271C203.722 16.271 200.797 16.878 198.572 18.0746C196.321 19.2874 194.527 20.9114 193.24 22.9046C191.957 24.8879 191.101 27.1883 190.697 29.7426C190.398 31.6218 190.231 33.5456 190.198 35.4769H188.586C187.888 35.4769 187.299 36.0851 187.216 36.894C187.103 37.9767 187.047 39.2873 187.047 40.8965C187.047 41.9581 187.061 42.9281 187.087 43.7915V43.7927C187.098 44.1928 187.112 44.5719 187.129 44.9262C187.168 45.7351 187.715 46.3842 188.409 46.4424C188.959 46.4895 189.484 46.5131 189.966 46.5131C190.138 46.5131 190.341 46.5168 190.58 46.5254C190.658 47.9277 190.788 49.2606 190.971 50.5056C191.229 52.2634 191.669 53.8837 192.277 55.3195C192.899 56.7886 193.739 58.1129 194.773 59.2513C195.812 60.3997 197.16 61.3758 198.777 62.1525C199.2 62.3594 199.635 62.5477 200.08 62.7186L200.087 62.7199C201.482 63.2538 202.987 63.6143 204.578 63.7926C205.437 63.888 206.301 63.9376 207.167 63.9376C208.381 63.9376 209.599 63.8422 210.805 63.6539C212.867 63.3293 214.852 62.7546 216.705 61.9419C218.632 61.0971 220.236 59.9673 221.471 58.5824C221.992 58.0002 222.041 57.0463 221.581 56.396C220.885 55.4074 220.177 54.4585 219.477 53.5765C218.974 52.941 218.41 52.2709 217.791 51.5747L217.79 51.5734C217.548 51.2997 217.298 51.0247 217.041 50.7447C216.781 50.4585 216.443 50.3111 216.1 50.3111C216.076 50.3111 216.052 50.3111 216.026 50.3124C215.855 50.3235 215.684 50.3731 215.521 50.4585C214.793 50.8525 213.968 51.2798 213.07 51.7332C212.224 52.1606 211.319 52.5087 210.377 52.7738C209.464 53.029 208.5 53.1578 207.507 53.1578C206.589 53.1578 205.652 52.9324 204.72 52.4839C204.216 52.2411 203.814 51.9426 203.508 51.5747L203.504 51.5734C203.166 51.1684 202.941 50.6753 202.817 50.0832C202.596 49.0302 202.451 47.8794 202.386 46.6444C203.502 46.6394 204.68 46.6283 205.903 46.6146C207.719 46.5923 209.594 46.5577 211.474 46.5143C213.296 46.4734 215.197 46.4177 217.126 46.3483C219.002 46.2814 220.782 46.1811 222.423 46.0473C223.118 45.9903 223.668 45.3399 223.706 44.5273C223.759 43.4223 223.812 42.2257 223.864 40.9386C223.918 39.623 223.918 38.2195 223.866 36.7701ZM210.518 35.379C209.438 35.4001 208.279 35.4125 207.075 35.4125H203.605C203.095 35.4125 202.624 35.4075 202.196 35.3988C202.202 34.7633 202.213 34.1031 202.226 33.4193C202.248 32.292 202.428 31.218 202.762 30.2307C203.068 29.3152 203.551 28.5596 204.235 27.9129C204.846 27.3382 205.841 27.0458 207.191 27.0458C208.404 27.0458 209.307 27.296 209.876 27.7878C210.49 28.3205 210.936 28.9956 211.235 29.8504C211.572 30.8117 211.777 31.8919 211.845 33.06C211.891 33.8293 211.923 34.5911 211.941 35.3418C211.507 35.3555 211.033 35.3679 210.518 35.379Z" fill="#2296D6"/>
<path d="M221.471 58.5849C220.236 59.9686 218.632 61.0996 216.705 61.9444C214.851 62.757 212.867 63.3318 210.805 63.6564C209.599 63.8447 208.381 63.9401 207.167 63.9401C206.301 63.9401 205.436 63.8905 204.578 63.7951C202.987 63.6167 201.482 63.2575 200.087 62.7236C209.223 64.6065 218.387 58.2925 219.073 57.2904C219.759 56.287 219.244 54.7174 217.792 51.5771C218.41 52.2733 218.976 52.9435 219.478 53.579C220.178 54.461 220.886 55.4087 221.583 56.3984C222.04 57.0488 221.992 58.0026 221.471 58.5849Z" fill="#0F82B5"/>
<path d="M211.235 29.8505C210.936 28.9958 210.49 28.3194 209.876 27.788C209.308 27.2962 208.405 27.046 207.192 27.046C205.841 27.046 204.846 27.3383 204.235 27.9131C203.551 28.5585 203.068 29.3154 202.762 30.2308C202.427 31.2181 202.248 32.2922 202.226 33.4194C202.212 34.1032 202.201 34.7647 202.196 35.399H198.983C198.983 35.399 199.441 26.1714 204.42 25.6437C209.398 25.1147 210.753 27.8772 211.235 29.8505Z" fill="#0F82B5"/>
<path d="M223.866 36.77C223.852 36.1791 223.828 35.5869 223.794 34.9948C223.691 33.2135 223.494 31.4309 223.212 29.6718C222.809 27.1868 222.02 24.9323 220.865 22.9651C219.678 20.9496 217.972 19.3083 215.79 18.0856C214.375 17.294 212.65 16.7577 210.637 16.4839C216.543 18.5365 219.101 27.1187 219.157 37.2754C219.271 41.4191 220.074 42.088 218.757 42.6219C217.441 43.1558 199.197 44.158 199.197 44.158C191.832 44.7922 187.986 45.3992 187.088 43.795C187.099 44.1951 187.113 44.5742 187.13 44.9285C187.169 45.7374 187.716 46.3865 188.41 46.4447C188.961 46.4931 189.486 46.5154 189.967 46.5154C190.139 46.5154 190.342 46.5191 190.581 46.5277L200.139 46.6231C200.852 48.2112 201.972 50.223 203.506 51.5745C203.168 51.1694 202.943 50.6764 202.819 50.0843C202.598 49.0313 202.454 47.8805 202.388 46.6454C203.504 46.6405 204.682 46.6293 205.905 46.6157C207.721 46.5934 209.596 46.5587 211.476 46.5154C213.298 46.4745 215.199 46.4187 217.128 46.3494C219.004 46.2825 220.784 46.1821 222.425 46.0471C223.12 45.9914 223.669 45.3398 223.708 44.5271C223.761 43.4222 223.814 42.2255 223.866 40.9384C223.918 39.6229 223.918 38.2193 223.866 36.77Z" fill="#0F82B5"/>
<path d="M191.945 36.1929C191.729 36.1929 191.511 36.1966 191.293 36.2065C190.851 36.2251 190.401 36.2622 189.939 36.3737C189.707 36.4295 189.47 36.5149 189.237 36.6463C189.006 36.7763 188.779 36.9671 188.609 37.2099C188.438 37.4515 188.324 37.7277 188.252 37.9965C188.18 38.2666 188.137 38.5341 188.114 38.7968C188.068 39.322 188.069 39.8324 188.097 40.3403C188.123 40.8469 188.152 41.3523 188.194 41.854C188.353 40.8593 188.413 39.841 188.625 38.907C188.73 38.4474 188.884 38.0139 189.123 37.7574C189.356 37.4998 189.695 37.3846 190.08 37.3301C190.342 37.2991 190.615 37.2867 190.892 37.2867C191.436 37.2867 192.003 37.3325 192.564 37.3697C193.417 37.4292 194.273 37.4985 195.147 37.5258C195.545 37.5369 195.942 37.5419 196.339 37.5419C197.672 37.5419 198.999 37.4837 200.326 37.392C202.048 37.2656 203.765 37.0823 205.478 36.7664C203.753 36.5719 202.033 36.4889 200.315 36.4245C198.598 36.3626 196.88 36.339 195.176 36.2907C194.75 36.2808 194.33 36.261 193.899 36.2412C193.469 36.2263 193.038 36.2077 192.605 36.1991C192.385 36.1966 192.165 36.1929 191.945 36.1929Z" fill="#91CBEB"/>
<path d="M213.179 36.2967C213.179 36.2967 213.179 36.2955 213.179 36.2893V36.2905V36.2942V36.2967ZM213.494 35.7715L213.512 35.7653L213.52 35.764H213.522C213.516 35.7653 213.506 35.7677 213.494 35.7715ZM211.755 27.7876C212.172 28.8381 212.422 29.8861 212.618 30.9576C212.813 32.0267 212.933 33.1155 213.035 34.2069C213.084 34.7482 213.124 35.2933 213.156 35.8359L212.589 35.9325C211.634 36.0973 210.673 36.2818 209.716 36.5878C210.693 36.7959 211.665 36.8777 212.642 36.9012C212.752 36.9037 212.863 36.9049 212.973 36.9049C213.108 36.9049 213.245 36.9025 213.383 36.8963C213.446 36.8938 213.51 36.8901 213.579 36.8851C213.615 36.8826 213.647 36.8789 213.698 36.8703C213.708 36.869 213.722 36.8665 213.745 36.8603L213.773 36.8529L213.806 36.8405L213.849 36.8219C213.863 36.8145 213.874 36.8095 213.892 36.7984C213.945 36.765 214.006 36.7092 214.052 36.6324C214.1 36.5568 214.131 36.4639 214.141 36.3834L214.148 36.2843L214.149 36.2571C214.153 36.1109 214.157 35.9635 214.158 35.8185C214.162 35.5274 214.153 35.2376 214.142 34.9477C214.129 34.6578 214.11 34.3692 214.085 34.0805C213.978 32.9285 213.775 31.7777 213.411 30.6826C213.317 30.4101 213.228 30.1375 213.108 29.8762L212.937 29.4847L212.738 29.1094C212.471 28.6089 212.132 28.1592 211.755 27.7876Z" fill="#91CBEB"/>
<path d="M206.451 17.397C204.562 17.4403 202.665 17.7798 200.842 18.4772C200.389 18.6618 199.931 18.8315 199.493 19.0668C199.272 19.1796 199.046 19.2799 198.83 19.4075L198.184 19.794C197.339 20.3403 196.514 20.9572 195.781 21.7153C195.046 22.4648 194.376 23.3109 193.815 24.2474C193.254 25.1826 192.798 26.2046 192.468 27.2712C192.139 28.339 191.928 29.449 191.839 30.5651C191.8 31.1238 191.785 31.6837 191.807 32.2399C191.831 32.7961 191.879 33.3511 191.989 33.8887C192.04 31.6886 192.484 29.5629 193.236 27.6366C193.987 25.7066 195.109 24.0194 196.472 22.6481L196.991 22.1427L197.537 21.6757C197.713 21.5109 197.912 21.3809 198.099 21.2322C198.29 21.0897 198.477 20.9386 198.677 20.8135L199.27 20.4183C199.469 20.2895 199.677 20.178 199.88 20.0566C200.284 19.8051 200.71 19.6069 201.13 19.3877C202.826 18.5428 204.623 17.9495 206.451 17.397Z" fill="#91CBEB"/>
<path d="M215.781 51.5757C215.231 51.9647 214.699 52.3487 214.143 52.6745C213.589 52.999 213.029 53.2926 212.456 53.5354C211.308 54.0123 210.125 54.3245 208.921 54.4385C208.505 54.4794 208.087 54.5004 207.668 54.5004C206.877 54.5004 206.085 54.4261 205.3 54.2725C204.7 54.1548 204.103 53.9938 203.524 53.7633C202.952 53.523 202.368 53.2579 201.912 52.7352C202.04 53.0808 202.265 53.3793 202.508 53.6358C202.753 53.8922 203.024 54.1152 203.305 54.3134C203.87 54.7073 204.483 54.9959 205.111 55.2177C206.071 55.5521 207.075 55.7156 208.081 55.7156C208.392 55.7156 208.702 55.6995 209.013 55.6686C210.327 55.5435 211.619 55.1111 212.79 54.4236C213.373 54.073 213.922 53.6531 214.429 53.1824L214.798 52.8132C214.92 52.6893 215.033 52.5531 215.146 52.4193C215.375 52.1591 215.578 51.8631 215.781 51.5757Z" fill="#91CBEB"/>
<path d="M192.609 50.2788C192.636 51.5015 192.851 52.7105 193.205 53.8725C193.561 55.032 194.067 56.1444 194.723 57.1354C195.377 58.1264 196.184 58.9911 197.1 59.6389C198.014 60.2856 199.034 60.7216 200.078 60.8418C199.172 60.2311 198.334 59.5906 197.581 58.8474C196.826 58.1091 196.156 57.2803 195.558 56.3797C194.961 55.4779 194.436 54.5042 193.961 53.4798C193.483 52.4553 193.062 51.3813 192.609 50.2788Z" fill="#91CBEB"/>
<path d="M259.119 59.1314C258.995 59.5848 258.708 59.949 258.33 60.1311C257.223 60.6625 256.026 61.2051 254.774 61.7427C253.611 62.2394 252.403 62.6495 251.176 62.9616C251.033 62.9988 250.89 63.0335 250.746 63.0669C250.655 63.0892 250.564 63.0991 250.474 63.0991C250.112 63.0991 249.761 62.9332 249.5 62.6309C248.766 61.7786 248.041 60.7752 247.345 59.6529C247.144 59.3283 246.608 58.5107 245.989 57.5631C244.177 54.7907 242.758 52.6093 242.374 51.8573C241.8 50.7338 241.291 49.6337 240.858 48.5882C240.618 48.0085 240.411 47.4783 240.236 46.9927C239.723 47.0224 239.266 47.0298 238.864 47.015C238.661 47.0075 238.446 47.0038 238.216 47.0038C238.225 47.5328 238.24 48.0766 238.261 48.6328C238.266 48.7777 238.272 48.9227 238.277 49.0689L238.434 53.0763C238.484 54.3708 238.551 55.6926 238.631 57.0106C238.709 58.3138 238.799 59.5303 238.901 60.6278C238.94 61.0577 238.831 61.4888 238.595 61.8232C238.362 62.1589 238.02 62.3683 237.651 62.4067C234.673 62.7188 231.841 62.8539 229.231 62.8105C228.574 62.7981 228.017 62.2518 227.894 61.4987C227.723 60.4507 227.575 58.9418 227.44 56.8842C227.308 54.8911 227.187 52.5795 227.083 50.0153C226.977 47.4622 226.911 44.6898 226.884 41.7775C226.856 38.8874 226.856 36.0011 226.884 33.199C226.909 30.3833 227.005 27.6741 227.163 25.1507C227.324 22.6026 227.544 20.4384 227.812 18.7203C227.939 17.9175 228.558 17.3514 229.255 17.401C230.554 17.4926 231.978 17.6054 233.49 17.7342C235.077 17.8705 236.438 18.055 237.534 18.2842C238.08 18.3982 238.495 18.8726 238.626 19.4648V19.466C238.667 19.6481 238.68 19.8401 238.664 20.0358C238.558 21.2263 238.441 22.5827 238.309 24.1039C238.181 25.5868 238.077 27.1352 237.999 28.706C237.921 30.2792 237.868 31.8413 237.843 33.3452C237.826 34.278 237.836 35.1624 237.869 35.9936C238.485 36.0147 239.191 36.0098 239.827 35.9763C239.946 35.9689 240.059 35.9639 240.165 35.9602C240.701 34.9704 241.204 33.8568 241.662 32.6341C242.257 31.0472 242.849 29.4108 243.423 27.7707C244.002 26.1095 244.621 24.4483 245.261 22.833C245.924 21.1631 246.653 19.6555 247.43 18.3523C247.748 17.8184 248.31 17.5608 248.856 17.6983C249.226 17.7912 249.636 17.9014 250.08 18.0265H250.082C250.285 18.0823 250.494 18.143 250.711 18.2062C251.399 18.4056 252.12 18.6348 252.854 18.885C253.549 19.1229 254.246 19.3718 254.93 19.6233C255.601 19.8698 256.214 20.1126 256.755 20.3381C257.155 20.5053 257.466 20.8794 257.601 21.3502C257.734 21.8197 257.675 22.3362 257.44 22.7487C256.909 23.6778 256.38 24.8546 255.861 26.2421C255.311 27.715 254.748 29.3117 254.186 30.9878C253.556 32.8571 252.962 34.605 252.367 36.3318C251.79 38.0066 251.142 39.6208 250.437 41.1383C250.651 42.0203 250.899 42.8502 251.175 43.6121C251.525 44.582 251.921 45.5693 252.353 46.5492C252.599 47.1116 253.902 49.3154 254.767 50.7759C255.328 51.726 255.815 52.5486 256.044 52.966C256.298 53.4318 256.772 54.1813 257.274 54.9765C257.899 55.9676 258.548 56.992 258.972 57.7811C259.19 58.185 259.245 58.678 259.119 59.1314Z" fill="#ED1E79"/>
<path d="M259.119 59.1314C258.995 59.5848 258.707 59.949 258.33 60.1311C257.223 60.6613 256.026 61.2051 254.774 61.7427C253.611 62.2395 252.403 62.6495 251.176 62.9617C251.326 62.8353 256.473 58.4476 256.388 57.5904C256.302 56.7233 254.584 54.6508 252.868 52.3442C251.152 50.0389 247.346 42.0215 247.889 40.4508C248.433 38.8813 255.272 22.5085 255.215 21.4753C255.159 20.4583 250.256 18.1108 250.083 18.0278C250.286 18.0836 250.496 18.1443 250.712 18.2075C251.4 18.4069 252.121 18.6361 252.855 18.8863C253.55 19.1241 254.247 19.3731 254.931 19.6246C255.602 19.8711 256.215 20.1127 256.756 20.3394C257.156 20.5066 257.467 20.8807 257.602 21.3514C257.735 21.8209 257.676 22.3375 257.441 22.75C256.91 23.6791 256.381 24.8559 255.862 26.2433C255.312 27.7162 254.749 29.313 254.187 30.9891C253.556 32.8584 252.963 34.6063 252.368 36.3331C251.791 38.0079 251.143 39.622 250.438 41.1395C250.652 42.0215 250.901 42.8515 251.176 43.6134C251.527 44.5833 251.922 45.5706 252.354 46.5517C252.6 47.1141 253.903 49.3179 254.768 50.7784C255.329 51.7285 255.816 52.5511 256.046 52.9685C256.299 53.4343 256.773 54.1838 257.275 54.9791C257.9 55.9701 258.549 56.9945 258.973 57.7824C259.191 58.185 259.246 58.678 259.119 59.1314Z" fill="#CC0E69"/>
<path d="M238.667 20.0357C238.56 21.2261 238.443 22.5826 238.311 24.1038C238.183 25.5866 238.079 27.135 238.001 28.7058C237.923 30.279 237.87 31.8411 237.845 33.345C237.828 34.2778 237.838 35.1635 237.871 35.9935H235.439C235.439 35.9935 235.582 30.0263 236.413 26.1502C237.243 22.2741 238.609 21.6659 238.627 19.4658C238.67 19.6479 238.682 19.8399 238.667 20.0357Z" fill="#CC0E69"/>
<path d="M238.217 47.0024C238.446 47.0024 238.662 47.0061 238.865 47.0135C239.267 47.0272 239.724 47.021 240.237 46.9912C240.237 46.9912 235.3 44.4939 235.243 44.8952C235.185 45.2966 235.442 47.0036 235.442 47.0036C235.442 47.0036 236.445 55.6762 236.405 58.84C236.367 62.0014 229.234 62.8115 229.234 62.8115C231.844 62.8561 234.676 62.7199 237.654 62.4077C238.023 62.3693 238.364 62.1587 238.599 61.8242C238.834 61.4885 238.944 61.0587 238.904 60.6288C238.803 59.5325 238.712 58.3148 238.634 57.0116C238.554 55.6948 238.487 54.3718 238.437 53.0773L238.28 49.0699C238.269 48.7676 238.258 48.4716 238.249 48.1767C238.246 48.1098 238.244 48.0417 238.242 47.976C238.23 47.6453 238.222 47.3207 238.217 47.0024Z" fill="#CC0E69"/>
<path d="M228.614 31.228C228.378 33.63 228.266 36.0382 228.215 38.4476C228.159 40.857 228.178 43.2676 228.262 45.677C228.349 48.0864 228.499 50.4946 228.763 52.8929C229.024 55.2874 229.376 57.6857 229.994 59.996C229.808 57.589 229.69 55.2019 229.584 52.8086L229.318 45.6262C229.231 43.2317 229.149 40.8347 229.036 38.4352C228.932 36.0357 228.816 33.635 228.614 31.228Z" fill="#F68FBC"/>
<path d="M229.452 19.6926C229.455 19.6778 229.457 19.6691 229.457 19.6691C229.457 19.6691 229.457 19.6691 229.457 19.6703C229.457 19.679 229.455 19.6864 229.452 19.6926ZM230.645 18.2866C230.445 18.2866 230.242 18.2941 230.034 18.3126C229.877 18.33 229.719 18.3523 229.551 18.3944C229.386 18.434 229.207 18.4898 229.011 18.6062L228.938 18.6521L228.86 18.714C228.835 18.7351 228.81 18.7549 228.785 18.7797C228.758 18.8069 228.733 18.8354 228.709 18.8651C228.608 18.9791 228.52 19.15 228.472 19.3309C228.436 19.5031 228.435 19.5824 228.425 19.679C228.418 19.7682 228.413 19.8586 228.409 19.9441C228.38 20.6304 228.378 21.2956 228.391 21.9682C228.421 23.3086 228.499 24.6465 228.69 25.9843C228.94 24.6601 229.088 23.3346 229.222 22.0128L229.409 20.0482L229.435 19.8153C229.439 19.7806 229.445 19.7422 229.449 19.7137L229.456 19.7112L229.467 19.7025L229.49 19.6914C229.548 19.6592 229.647 19.6195 229.761 19.5972C229.873 19.5712 229.998 19.5551 230.125 19.5427C230.387 19.5167 230.661 19.508 230.94 19.508C231.211 19.508 231.485 19.5155 231.76 19.5229L233.456 19.5824C233.89 19.5948 234.325 19.6034 234.762 19.6034C235.472 19.6034 236.185 19.5787 236.901 19.5006C235.787 19.1178 234.667 18.8416 233.535 18.6186C232.969 18.5096 232.399 18.4179 231.82 18.356C231.432 18.3176 231.045 18.2866 230.645 18.2866Z" fill="#F68FBC"/>
<path d="M241.211 36.9884L241.236 36.9723L241.251 36.9673C241.237 36.9735 241.224 36.9809 241.211 36.9884ZM245.71 26.854C245.059 27.9416 244.508 29.0825 243.984 30.2334C243.463 31.3867 242.978 32.5585 242.514 33.7354L241.827 35.4981C241.715 35.7905 241.598 36.0804 241.484 36.3628C241.425 36.5028 241.366 36.6428 241.306 36.7691C241.292 36.8026 241.278 36.8323 241.263 36.8608C241.249 36.8893 241.233 36.9227 241.222 36.9413L241.194 36.9933L241.193 36.997C241.164 37.0131 241.136 37.0293 241.101 37.0441C241.042 37.0677 240.988 37.0961 240.926 37.1172C240.804 37.163 240.676 37.2027 240.546 37.2436C240.285 37.3204 240.016 37.3934 239.746 37.4603C239.203 37.5978 238.654 37.7242 238.1 37.8766C238.661 37.9918 239.225 38.0438 239.793 38.0636C239.875 38.0661 239.957 38.0673 240.039 38.0673C240.242 38.0673 240.447 38.0611 240.653 38.045C240.798 38.0351 240.945 38.0165 241.095 37.9905C241.17 37.9794 241.249 37.9583 241.326 37.941C241.403 37.9249 241.49 37.8877 241.572 37.8605C241.576 37.8605 241.608 37.8431 241.632 37.827C241.658 37.8109 241.683 37.7923 241.708 37.7725L241.742 37.7428L241.758 37.7242L241.794 37.687C241.844 37.6313 241.87 37.5954 241.901 37.5532C241.934 37.5099 241.956 37.474 241.981 37.4356C242.007 37.3972 242.031 37.36 242.053 37.3228C242.145 37.1742 242.221 37.0305 242.299 36.8856C242.452 36.5982 242.588 36.3058 242.724 36.0159C242.991 35.4337 243.235 34.8428 243.472 34.2495C243.94 33.0602 244.359 31.8512 244.74 30.6223C245.117 29.3935 245.46 28.1485 245.71 26.854Z" fill="#F68FBC"/>
<path d="M249.055 18.8926C249.004 18.8926 248.953 18.9198 248.909 18.9409C248.853 18.9719 248.8 19.0078 248.751 19.0462C248.651 19.1218 248.563 19.2085 248.477 19.2964C248.308 19.4736 248.161 19.6656 248.025 19.8638C247.757 20.2627 247.537 20.6876 247.353 21.1298C247.17 21.5733 247.024 22.0353 246.919 22.5172C246.819 23.0016 246.746 23.5008 246.777 24.0508C247.152 23.7126 247.424 23.3237 247.674 22.9235C247.918 22.5209 248.127 22.0998 248.305 21.6637C248.484 21.2289 248.633 20.7792 248.756 20.3159C248.817 20.083 248.871 19.8489 248.917 19.6086L248.986 19.2469C248.999 19.1874 249.01 19.1255 249.025 19.0672C249.039 19.0053 249.05 18.9496 249.091 18.8988C249.08 18.8951 249.067 18.8926 249.055 18.8926Z" fill="#F68FBC"/>
<path d="M241.728 46.8984C242.103 48.3379 242.654 49.7005 243.26 51.0173C243.875 52.3292 244.565 53.589 245.3 54.808C246.038 56.0244 246.829 57.1951 247.665 58.3211C248.507 59.441 249.387 60.5249 250.37 61.4998C249.727 60.1979 249.031 58.9579 248.324 57.7302C247.617 56.5039 246.892 55.2961 246.162 54.0957C245.435 52.8916 244.698 51.6999 243.961 50.5033C243.226 49.3054 242.495 48.1075 241.728 46.8984Z" fill="#F68FBC"/>
<path d="M32.882 63.892C30.9625 65.3648 28.6908 66.17 26.4191 66.17C21.4651 66.17 15.728 62.7176 13.1464 55.2466C15.1433 58.2977 17.9636 60.6117 21.0491 61.6907C24.557 62.9146 26.9401 61.7427 28.3195 60.5411C28.9434 59.9997 29.4919 59.337 29.9418 58.5863C30.64 60.6067 31.6236 62.3844 32.882 63.892Z" fill="#D8730F"/>
<path d="M56.1657 55.2466C53.5841 62.7176 47.847 66.1701 42.893 66.1701C40.1979 66.1701 37.4614 65.0106 35.3839 62.9864C33.057 60.7232 31.5938 57.4603 31.1546 53.5656C31.1461 53.4677 31.1333 53.3637 31.1206 53.2534C31.0442 52.4804 31.0049 51.6728 31.0049 50.8527C31.0049 45.5062 33.317 42.709 35.2566 41.3055C36.7643 40.2117 38.5745 39.5749 40.4918 39.4684C40.6202 39.4634 40.7475 39.4585 40.8738 39.4585C43.4299 39.4585 45.6973 40.9066 46.9929 43.3941C47.9754 45.2782 48.2672 47.5093 47.8237 49.5309C47.8237 49.5309 47.8237 49.5309 47.8216 49.5284C46.9568 48.6489 45.5796 47.6938 43.6665 47.6938C42.1142 47.6938 40.7772 48.2748 39.8021 49.3711C38.948 50.3312 38.3952 51.6567 38.201 53.1853L38.1968 53.2225V53.2299L38.1861 53.3116C38.1777 53.3909 38.1649 53.5111 38.1586 53.5829C38.1352 53.8666 38.1225 54.1565 38.1225 54.4426C38.1225 56.1757 39.0212 58.8229 40.9947 60.5374C42.3762 61.739 44.7594 62.9109 48.2672 61.6845C51.3485 60.6117 54.1688 58.2977 56.1657 55.2466Z" fill="#F7931E"/>
<path d="M32.5096 40.395C32.4353 40.4718 32.3621 40.5498 32.2899 40.6291C31.8008 41.1581 31.3615 41.7328 30.9721 42.3485C30.588 42.9518 30.2548 43.5947 29.9683 44.276C29.3964 45.63 29.0187 47.1252 28.8436 48.7455C27.9598 48.058 26.8711 47.6963 25.6456 47.6963C23.7325 47.6963 22.3532 48.6538 21.4905 49.5334C21.046 47.5117 21.3367 45.2807 22.3213 43.3965C23.6148 40.9091 25.8833 39.4609 28.4383 39.4609C28.5667 39.4609 28.694 39.4659 28.8224 39.4708C30.1084 39.5427 31.3679 39.8586 32.5096 40.395Z" fill="#F7931E"/>
<path d="M56.7981 39.5181C55.3805 33.0889 52.0965 26.3909 47.7897 21.1435C43.4553 15.8589 38.6785 12.8301 34.6879 12.8301H34.6242C30.6336 12.8301 25.8589 15.8589 21.5223 21.1435C17.5614 25.9697 14.4674 32.0248 12.8917 37.9647C12.8917 37.9697 12.8896 37.9721 12.8896 37.9771C12.7506 38.4937 12.6265 39.0065 12.514 39.5181C10.6901 50.1629 15.9943 57.1545 21.6995 59.1489C24.3044 60.0581 25.9979 59.2542 26.9624 58.4155C28.2324 57.3093 28.9179 55.5465 28.9179 54.4465C28.9179 54.2471 28.9094 54.0476 28.8945 53.8507C28.8839 53.7739 28.8733 53.676 28.8648 53.5769C28.7152 52.3852 28.0945 50.3487 25.6445 50.3487C25.2859 50.3487 24.9548 50.4007 24.6535 50.4911C22.9792 50.9817 22.1876 52.5995 22.1473 52.68C21.9553 53.0963 21.5775 53.3626 21.1669 53.3675C20.7616 53.3799 20.3764 53.1285 20.1674 52.7073C18.822 50.0006 18.6533 46.7042 19.6443 43.746C19.6443 43.746 19.6443 43.7436 19.6464 43.7386C19.8427 43.1477 20.0867 42.5717 20.3764 42.0192C22.1759 38.5667 25.3729 36.6268 28.9295 36.8238C30.9795 36.9353 32.9499 37.5671 34.6539 38.6485C36.358 37.5671 38.3305 36.9365 40.3804 36.8238C43.936 36.6268 47.134 38.5667 48.9314 42.0192C50.6737 45.3626 50.7554 49.4605 49.1405 52.7085C48.9378 53.1173 48.5622 53.3688 48.1579 53.3688C47.7314 53.3638 47.3547 53.0975 47.1584 52.6763C47.116 52.5871 46.0284 50.3499 43.6633 50.3499C41.2123 50.3499 40.5926 52.3889 40.4409 53.6029L40.4345 53.6574C40.4282 53.7243 40.4197 53.7999 40.4154 53.847C40.3985 54.0439 40.39 54.2458 40.39 54.4478C40.39 55.5465 41.0754 57.3093 42.3476 58.4168C43.311 59.2542 45.0055 60.0594 47.6104 59.1501C50.0657 58.2904 52.4488 56.5053 54.2186 53.9002H54.2208C56.5646 50.4564 57.8379 45.5782 56.7981 39.5181ZM38.3687 34.7365C36.8312 36.2973 35.1378 36.4187 34.656 36.4187C34.1733 36.4187 32.4798 36.2961 30.9455 34.7365C30.8989 34.6894 30.8511 34.6386 30.8044 34.5891C29.3073 32.9687 28.5497 30.5209 28.5497 27.31C28.5497 22.1097 31.1991 17.6402 32.7769 15.4414C33.2448 14.791 33.9303 14.4169 34.656 14.4169C34.7006 14.4169 34.7462 14.4194 34.7929 14.4219C35.4699 14.464 36.098 14.8307 36.5352 15.4414C38.1151 17.6402 40.7645 22.1097 40.7645 27.31C40.7645 30.6213 39.9571 33.1186 38.3687 34.7365Z" fill="#2296D6"/>
<path d="M59.005 38.8912C57.4984 32.0247 54.0075 24.8844 49.4312 19.3087C47.1489 16.5264 44.753 14.3177 42.3126 12.7457C39.6674 11.0412 37.1007 10.1777 34.6879 10.1777H34.6242C32.2114 10.1777 29.6468 11.0399 26.9995 12.7457C24.5591 14.3189 22.1653 16.5277 19.883 19.3087C15.3056 24.8856 11.8137 32.0247 10.307 38.8924C9.75846 41.3873 9.48047 43.8128 9.48047 46.0996C9.48047 55.2974 12.6042 60.6625 15.2239 63.5439C18.2755 66.8997 22.3553 68.8235 26.4191 68.8235C29.3105 68.8235 32.2888 67.6839 34.6571 65.6845C37.0254 67.6839 40.0037 68.8235 42.8951 68.8235C46.96 68.8235 51.0408 66.8985 54.0924 63.5439C56.7121 60.6625 59.8337 55.2974 59.8337 46.0996C59.8316 43.8128 59.5547 41.3873 59.005 38.8912ZM26.418 66.1701C21.464 66.1701 15.7269 62.7176 13.1453 55.2466C15.1422 58.2977 17.9625 60.6117 21.0481 61.6907C24.5559 62.9146 26.939 61.7427 28.3184 60.5411C28.9423 59.9998 29.4908 59.337 29.9407 58.5863C30.6389 60.6055 31.6236 62.3832 32.8809 63.8908C30.9615 65.3649 28.6897 66.1701 26.418 66.1701ZM28.8436 48.7456C27.9597 48.058 26.8711 47.6963 25.6456 47.6963C23.7325 47.6963 22.3531 48.6539 21.4905 49.5334C21.0459 47.5117 21.3367 45.2807 22.3213 43.3966C23.6147 40.9091 25.8833 39.461 28.4383 39.461C28.5667 39.461 28.694 39.4659 28.8224 39.4709C30.1073 39.5427 31.3678 39.8599 32.5095 40.3963C30.4606 42.5084 29.2086 45.36 28.8436 48.7456ZM42.893 66.1701C40.1979 66.1701 37.4615 65.0106 35.3839 62.9864C33.057 60.7232 31.5938 57.4603 31.1546 53.5656C31.1461 53.4677 31.1333 53.3637 31.1206 53.2534C31.0442 52.4804 31.005 51.6728 31.005 50.8527C31.005 45.5062 33.317 42.709 35.2566 41.3055C36.7643 40.2117 38.5745 39.575 40.4918 39.4684C40.6202 39.4635 40.7475 39.4585 40.8738 39.4585C43.4299 39.4585 45.6973 40.9066 46.9929 43.3941C47.9754 45.2782 48.2672 47.5093 47.8237 49.5309C46.9589 48.6514 45.5817 47.6938 43.6665 47.6938C42.1142 47.6938 40.7772 48.2748 39.8021 49.3711C38.948 50.3312 38.3952 51.6567 38.201 53.1853L38.1968 53.2225V53.2299L38.1862 53.3117C38.1777 53.3909 38.1649 53.5111 38.1586 53.583C38.1352 53.8666 38.1225 54.1565 38.1225 54.4427C38.1225 56.1757 39.0212 58.8229 40.9948 60.5374C42.3762 61.739 44.7594 62.9109 48.2672 61.6845C51.3506 60.608 54.1709 58.294 56.1678 55.2429C53.5841 62.7176 47.847 66.1701 42.893 66.1701ZM47.6147 59.1487C45.0098 60.058 43.3142 59.254 42.3518 58.4154C41.0796 57.3092 40.3942 55.5464 40.3942 54.4464C40.3942 54.2445 40.4027 54.0425 40.4197 53.8456C40.4239 53.7985 40.4324 53.7229 40.4388 53.656L40.4451 53.6015C40.5969 52.3875 41.2155 50.3485 43.6675 50.3485C46.0337 50.3485 47.1202 52.5845 47.1627 52.6749C47.3589 53.0961 47.7346 53.3625 48.1622 53.3674C48.5654 53.3674 48.942 53.1159 49.1447 52.7071C50.7586 49.4591 50.6779 45.3612 48.9357 42.0178C47.1382 38.5654 43.9392 36.6254 40.3847 36.8224C38.3347 36.9339 36.3622 37.5657 34.6582 38.6471C32.9541 37.5657 30.9837 36.9351 28.9338 36.8224C25.3761 36.6254 22.1802 38.5654 20.3807 42.0178C18.6384 45.3612 18.5567 49.4591 20.1716 52.7071C20.3807 53.1283 20.7648 53.3798 21.1711 53.3674C21.5807 53.3625 21.9595 53.0961 22.1515 52.6799C22.1982 52.5857 23.2964 50.3485 25.6488 50.3485C28.0977 50.3485 28.7195 52.3851 28.8691 53.5768C28.8775 53.6759 28.8882 53.7737 28.8988 53.8505C28.9136 54.0475 28.9221 54.2469 28.9221 54.4464C28.9221 55.5452 28.2367 57.3079 26.9666 58.4154C26.001 59.2528 24.3087 60.058 21.7038 59.1487C15.9985 57.1543 10.6943 50.1627 12.5183 39.518C13.9379 33.0888 17.2198 26.3907 21.5266 21.1433C25.8631 15.8587 30.6378 12.8299 34.6284 12.8299H34.6921C38.6827 12.8299 43.4596 15.8587 47.794 21.1433C52.1008 26.3907 55.3847 33.0888 56.8023 39.518C58.6231 50.1615 53.3178 57.1543 47.6147 59.1487Z" fill="#034163"/>
<path d="M34.656 14.418C33.9303 14.418 33.2448 14.7921 32.7769 15.4424C31.1991 17.6412 28.5497 22.1107 28.5497 27.3111C28.5497 30.6211 29.355 33.1197 30.9455 34.7375C32.4809 36.2983 34.1743 36.4197 34.656 36.4197C35.1388 36.4197 36.8322 36.2971 38.3687 34.7375C39.957 33.1197 40.7645 30.6223 40.7645 27.3111C40.7645 22.1107 38.1151 17.6412 36.5352 15.4424C36.0672 14.7908 35.3839 14.418 34.656 14.418ZM36.8768 32.7344C35.9113 33.7167 34.8587 33.7663 34.656 33.7663C34.4555 33.7663 33.4029 33.7167 32.4374 32.7344C31.3636 31.6455 30.8214 29.8208 30.8214 27.3098C30.8214 22.9469 33.1377 19.0683 34.5192 17.1445C34.5531 17.0974 34.604 17.0727 34.656 17.0727C34.707 17.0727 34.759 17.0974 34.795 17.1445C36.1765 19.0683 38.4928 22.9481 38.4928 27.3098C38.4928 29.8208 37.9485 31.6455 36.8768 32.7344Z" fill="#034163"/>
<path d="M38.4928 27.3099C38.4928 29.8197 37.9485 31.6444 36.8768 32.7345C35.9113 33.7169 34.8587 33.7664 34.656 33.7664C34.5085 33.7664 33.9006 33.7391 33.2045 33.3353C32.9552 33.1879 32.6941 32.9934 32.4384 32.7345C31.3646 31.6456 30.8224 29.8209 30.8224 27.3099C30.8224 22.947 33.1387 19.0684 34.5202 17.1446C34.5542 17.0975 34.6051 17.0728 34.6571 17.0728C34.708 17.0728 34.76 17.0975 34.7961 17.1446C36.1765 19.0684 38.4928 22.9482 38.4928 27.3099Z" fill="#A6DD47"/>
<path d="M38.4928 27.3099C38.4928 29.8197 37.9485 31.6444 36.8768 32.7345C35.9113 33.7169 34.8587 33.7664 34.656 33.7664C34.5086 33.7664 33.9006 33.7391 33.2045 33.3353C33.2067 33.3353 33.2067 33.3353 33.2088 33.3353C36.3198 33.9609 37.0158 26.0514 34.656 17.0728C34.707 17.0728 34.759 17.0975 34.795 17.1446C36.1765 19.0684 38.4928 22.9482 38.4928 27.3099Z" fill="#8EBA38"/>
<path d="M56.1656 55.2469C55.2086 57.8049 50.5675 63.8848 44.458 63.8848C38.3485 63.8848 35.194 58.4528 34.83 54.9112C34.465 51.3683 35.5579 46.3612 40.5332 44.9453C45.4395 43.5467 47.7568 49.3677 47.8205 49.5324C46.9557 48.6529 45.5785 47.6978 43.6654 47.6978C42.1131 47.6978 40.7762 48.2788 39.801 49.3751C38.9469 50.3351 38.3941 51.6606 38.1999 53.1893L38.1957 53.2264V53.2339L38.1851 53.3156C38.1766 53.3949 38.1638 53.5151 38.1575 53.5869C38.1341 53.8706 38.1214 54.1605 38.1214 54.4466C38.1214 56.1797 39.0201 58.8269 40.9937 60.5414C42.3752 61.743 44.7583 62.9148 48.2661 61.6885C51.3485 60.612 54.1688 58.2979 56.1656 55.2469Z" fill="#D8730F"/>
<path d="M29.9694 44.2759C29.3975 45.6299 29.0197 47.1251 28.8447 48.7454C27.9608 48.0579 26.8722 47.6962 25.6467 47.6962C23.7336 47.6962 22.3542 48.6537 21.4916 49.5333C21.4905 49.5333 24.1973 41.3846 29.9694 44.2759Z" fill="#D8730F"/>
<path d="M51.9618 56.5165C50.6249 57.7305 49.1351 58.6174 47.6146 59.1489C45.0098 60.0581 43.3142 59.2542 42.3518 58.4155C41.0796 57.3093 40.3942 55.5465 40.3942 54.4465C40.3942 54.2446 40.4027 54.0427 40.4197 53.8457C40.4239 53.7986 40.4324 53.7231 40.4388 53.6562L40.4451 53.6017C40.5969 52.3877 41.2154 50.3487 43.6675 50.3487C46.0337 50.3487 47.1202 52.5846 47.1626 52.6751C47.3589 53.0962 47.7345 53.3626 48.1622 53.3675C48.5654 53.3675 48.942 53.1161 49.1447 52.7073C50.7585 49.4592 50.6779 45.3614 48.9357 42.0179C47.1382 38.5655 43.9392 36.6256 40.3846 36.8225C38.3347 36.934 36.3622 37.5658 34.6581 38.6472C32.9541 37.5658 30.9837 36.9353 28.9338 36.8225C25.3761 36.6256 22.1802 38.5655 20.3806 42.0179C20.0899 42.5717 19.8469 43.1477 19.6506 43.7373C19.6931 43.4685 21.1085 35.0152 30.8065 34.589C30.8532 34.6386 30.901 34.6881 30.9477 34.7364C32.483 36.2973 34.1764 36.4187 34.6581 36.4187C35.1409 36.4187 36.8344 36.2961 38.3708 34.7364C39.9592 33.1186 40.7666 30.6213 40.7666 27.31C40.7666 22.1097 38.1172 17.6402 36.5373 15.4414C36.0991 14.8307 35.472 14.464 34.795 14.4219C38.9459 14.4219 42.8293 18.7923 44.3668 24.3345C45.9042 29.8755 44.2861 34.8207 44.2861 34.8207C44.2861 34.8207 49.3166 35.6853 51.7846 42.0155C54.139 48.0681 53.2467 53.3428 51.9618 56.5165Z" fill="#0F82B5"/>
<path d="M28.9189 54.4465C28.9189 55.5453 28.2335 57.308 26.9634 58.4155C25.9978 59.2529 24.3055 60.0581 21.7006 59.1489C15.9953 57.1544 10.6911 50.1628 12.5151 39.5181C12.6286 39.0065 12.7517 38.4936 12.8907 37.9771C10.7855 50.9222 21.3059 57.3043 24.1643 55.9801C26.4042 54.9457 25.9448 51.4326 24.6556 50.4911C24.9569 50.4019 25.288 50.3486 25.6466 50.3486C28.0955 50.3486 28.7173 52.3852 28.8669 53.5769C28.8754 53.676 28.886 53.7738 28.8966 53.8506C28.9104 54.0476 28.9189 54.247 28.9189 54.4465Z" fill="#0F82B5"/>
<path d="M28.5497 17.313C27.9735 18.2768 27.3507 19.1662 26.73 20.0519C26.4297 20.5053 26.1273 20.955 25.8196 21.396C25.5182 21.8432 25.1914 22.2631 24.9018 22.719C24.3129 23.6208 23.6773 24.4706 23.1043 25.3774L22.2152 26.7066L21.3547 28.0568C20.2172 29.863 19.1052 31.6864 18.0697 33.5793C17.5572 34.5282 17.0436 35.4832 16.5661 36.4668C16.0781 37.4479 15.6112 38.4451 15.1836 39.4993C15.2038 38.325 15.4223 37.1655 15.695 36.0395C15.9656 34.9072 16.3359 33.8159 16.7402 32.7406C17.5688 30.6025 18.6246 28.5982 19.8119 26.719L20.7286 25.334C21.0512 24.8893 21.378 24.4483 21.7101 24.0135C22.0422 23.5787 22.3701 23.1402 22.7319 22.7388C23.0831 22.3263 23.4418 21.9212 23.8004 21.5198C23.9765 21.3155 24.1622 21.121 24.3521 20.9339C24.541 20.7444 24.7288 20.5536 24.9209 20.369C25.3007 19.9949 25.6869 19.6282 26.0742 19.2665C26.8753 18.5753 27.6945 17.9138 28.5497 17.313Z" fill="#91CBEB"/>
<path d="M33.8995 20.0518C33.7924 21.0304 33.6162 21.9372 33.4571 22.8353C33.2937 23.7309 33.1366 24.6092 33.0114 25.485C32.8873 26.3608 32.7907 27.2317 32.7589 28.1112C32.7249 28.9957 32.7546 29.8764 32.8756 30.8526C32.2719 30.1552 31.9196 29.184 31.7551 28.2053C31.5917 27.2193 31.6087 26.2072 31.7488 25.2372C31.8899 24.266 32.152 23.3308 32.5085 22.4562C32.8682 21.5829 33.3138 20.7616 33.8995 20.0518Z" fill="#D3EEA3"/>
<path d="M42.8813 41.3067C41.85 41.3141 40.8748 41.4962 39.9517 41.8295C39.0307 42.1602 38.1628 42.6272 37.3766 43.2119C36.5924 43.7991 35.8826 44.4928 35.3128 45.2955C35.0253 45.6932 34.7717 46.1156 34.5627 46.5603C34.4534 46.7796 34.3589 47.0063 34.2751 47.2367C34.1892 47.4683 34.1138 47.7198 34.0417 47.9663C33.4793 49.962 33.4369 52.1955 33.7594 54.3831C34.0799 56.5844 34.7802 58.7349 35.802 60.8136C34.9807 60.084 34.2794 59.1623 33.6905 58.1453C33.1026 57.1258 32.6368 55.9985 32.3069 54.8093C31.6543 52.4383 31.5227 49.7712 32.2177 47.2676C32.3037 46.9542 32.4045 46.6532 32.5212 46.3448C32.639 46.0351 32.7705 45.7328 32.918 45.4454C33.2162 44.8706 33.5663 44.3404 33.9547 43.8635C34.7377 42.9146 35.664 42.1664 36.6614 41.6461C37.6577 41.1234 38.7209 40.8075 39.7894 40.7331C40.8536 40.6638 41.9317 40.8248 42.8813 41.3067Z" fill="#FBC98F"/>
<path d="M32.2899 40.6292C31.8008 41.1581 31.3615 41.7329 30.9721 42.3486C30.605 42.1987 30.2357 42.0699 29.8601 41.9596C29.0855 41.7304 28.2929 41.6053 27.4982 41.6128C26.7035 41.6202 25.9034 41.7775 25.1649 42.1591C24.4243 42.5356 23.7495 43.1315 23.22 43.9045C23.6126 43.0324 24.2026 42.252 24.9304 41.671C25.6583 41.0801 26.5146 40.706 27.39 40.4991C28.2675 40.2922 29.1725 40.2352 30.0606 40.2947C30.8129 40.343 31.5535 40.4619 32.2899 40.6292Z" fill="#FBC98F"/>
</svg>
