<svg width="40" height="40" viewBox="0 0 40 40" fill="none" xmlns="http://www.w3.org/2000/svg">
<g clip-path="url(#clip0_386_131)">
<path d="M36.2189 0H3.78109C1.69285 0 0 1.69285 0 3.78109V36.2189C0 38.3071 1.69285 40 3.78109 40H36.2189C38.3071 40 40 38.3071 40 36.2189V3.78109C40 1.69285 38.3071 0 36.2189 0Z" fill="#36AC11"/>
<path fill-rule="evenodd" clip-rule="evenodd" d="M21.2935 6.76616C28.6567 7.76119 32.0398 11.3433 33.0348 18.7065C33.0348 19.5025 33.0348 20.2985 33.8308 20.2985C34.6269 20.2985 34.6269 19.7015 34.6269 19.1045C34.6269 19.1045 34.6269 18.9055 34.6269 18.7065C34.8259 11.7413 28.6567 5.37313 21.4925 5.17412C20.8955 5.17412 19.7015 4.77611 19.7015 5.97014C19.7015 6.76616 20.6965 6.56716 21.2935 6.76616Z" fill="#FEFEFE"/>
<path fill-rule="evenodd" clip-rule="evenodd" d="M22.6866 8.75621C21.8906 8.55721 21.0946 8.3582 20.8956 9.15422C20.6966 10.3483 21.6916 10.1492 22.4876 10.3483C27.0647 11.3433 28.6568 12.9353 29.4528 17.5124C29.4528 17.7114 29.4528 17.9104 29.4528 18.1094C29.4528 18.5075 29.6518 19.1045 30.4478 18.9055C30.8458 18.9055 31.0448 18.7065 31.0448 18.3085C31.0448 18.1094 31.0448 17.7114 31.0448 17.5124C31.0448 13.1343 27.2637 9.15422 22.6866 8.75621Z" fill="#FEFEFE"/>
<path fill-rule="evenodd" clip-rule="evenodd" d="M23.0846 12.1393C22.6866 12.1393 22.0896 12.3383 22.0896 12.7363C21.6916 13.5323 22.2886 13.7314 22.8856 13.7314C24.6766 14.1294 25.6717 15.1244 25.8707 16.9154C25.8707 17.3134 26.0697 17.5124 26.0697 17.7115C26.2687 17.7115 26.4677 17.9105 26.8657 17.9105L27.0647 17.7115C27.4627 17.5124 27.4627 17.1144 27.4627 16.7164C27.4627 14.5274 25.0746 12.1393 23.0846 12.1393Z" fill="#FEFEFE"/>
<path fill-rule="evenodd" clip-rule="evenodd" d="M32.6368 26.6667C31.6418 25.8706 30.6468 25.2736 29.8508 24.6766C27.8607 23.2836 26.0697 23.2836 24.4776 25.2736C23.6816 26.4677 22.6866 26.6667 21.4925 26.0696C18.1095 24.6766 15.5224 22.2886 14.1294 19.1045C13.9304 18.5075 13.7314 18.1094 13.7314 17.5124C13.5324 16.7164 13.9304 15.9204 14.9254 15.3234C15.7214 14.7264 16.5174 14.1293 16.5174 12.9353C16.5174 11.3433 12.5373 6.16915 11.1443 5.57214C10.5473 5.37313 9.95026 5.37313 9.15424 5.57214C5.57215 6.76617 4.17912 9.75124 5.57215 13.1343C6.36817 14.9254 7.3632 16.7164 8.35822 18.3085C12.7363 25.6716 19.1045 31.0448 27.4627 34.4279C28.0597 34.8259 28.6567 34.8259 28.8557 35.0249C31.2438 35.0249 34.0299 32.8358 34.8259 30.6468C35.4229 28.4577 33.8309 27.6617 32.6368 26.6667Z" fill="#FEFEFE"/>
</g>
<defs>
<clipPath id="clip0_386_131">
<rect width="40" height="40" rx="20" fill="white"/>
</clipPath>
</defs>
</svg>
